<svg xmlns="http://www.w3.org/2000/svg" xmlns:xlink="http://www.w3.org/1999/xlink" version="1.1" width="1000" height="1000" viewBox="0 0 1000 1000" xml:space="preserve">
<desc>Created with Fabric.js 3.5.0</desc>
<defs>
</defs>
<rect x="0" y="0" width="100%" height="100%" fill="#ffffff"/>
<g transform="matrix(1.0169 0 0 -1.0169 500.0062 500.0088)" id="34435">
<g style="" vector-effect="non-scaling-stroke">
		<g transform="matrix(1 0 0 1 -0.1297 -145.6012)" id="letter-a">
<path style="stroke: none; stroke-width: 1; stroke-dasharray: none; stroke-linecap: butt; stroke-dashoffset: 0; stroke-linejoin: miter; stroke-miterlimit: 4; is-custom-font: none; font-file-url: none; fill: rgb(0,0,0); fill-rule: evenodd; opacity: 1;" transform=" translate(-313.3702, -301.3988)" d="M 445.433 22.9832 C 452.722 32.0324 456.439 44.2432 463.873 68.6647 L 626.281 602.176 C 566.234 571.026 500.957 548.56 432.115 536.439 L 326.371 179.099 C 324.641 173.252 319.27 169.241 313.173 169.241 C 307.06 169.241 301.68 173.273 299.963 179.14 L 195.5 536.259 C 126.338 548.325 60.7632 570.832 0.459473 602.095 L 163.664 68.5412 C 171.121 44.1617 174.85 31.9718 182.14 22.9393 C 188.575 14.9651 196.946 8.77213 206.454 4.95048 C 217.224 0.621582 229.971 0.621582 255.466 0.621582 H 372.034 C 397.562 0.621582 410.326 0.621582 421.106 4.95951 C 430.622 8.78908 438.998 14.9946 445.433 22.9832 Z" stroke-linecap="round"/>
</g>
		<g transform="matrix(1 0 0 1 1.6681 304.998)">
<path style="stroke: none; stroke-width: 1; stroke-dasharray: none; stroke-linecap: butt; stroke-dashoffset: 0; stroke-linejoin: miter; stroke-miterlimit: 4; is-custom-font: none; font-file-url: none; fill: rgb(255,93,1); fill-rule: evenodd; opacity: 1;" transform=" translate(-315.1682, -751.998)" d="M 464.867 627.566 C 438.094 650.46 384.655 666.073 323.101 666.073 C 247.551 666.073 184.229 642.553 167.426 610.921 C 161.419 629.05 160.072 649.798 160.072 663.052 C 160.072 663.052 156.114 728.134 201.38 773.401 C 201.38 749.896 220.435 730.842 243.939 730.842 C 284.226 730.842 284.181 765.99 284.144 794.506 C 284.143 795.36 284.142 796.209 284.142 797.051 C 284.142 840.333 310.595 877.436 348.215 893.075 C 342.596 881.518 339.444 868.54 339.444 854.825 C 339.444 813.545 363.679 798.175 391.845 780.311 C 414.255 766.098 439.155 750.307 456.315 718.629 C 465.268 702.101 470.352 683.17 470.352 663.052 C 470.352 650.68 468.43 638.757 464.867 627.566 Z" stroke-linecap="round"/>
</g>
</g>
</g>
</svg>